# xmcd CD database file
#
# Track frame offsets:
#	187
#	19912
#	45262
#
# Disc length: 864 seconds
#
# Revision: 0
# Processed by: cddbd v1.5.1PL2 Copyright (c) Steve Scherf et al.
# Submitted via: CDex 1.51
#
DISCID=18035e03
DTITLE=上原さくら - SHOPPING
DYEAR=1996
DGENRE=JPop
TTITLE0=SHOPPING
TTITLE1=二人の瞳
TTITLE2=SHOPPING (INSTRUMENTAL)
EXTD=YEAR: 1996
EXTT0=
EXTT1=
EXTT2=
PLAYORDER=
